<?xml version="1.0" encoding="utf-8"?>
<!-- Generator: Adobe Illustrator 15.1.0, SVG Export Plug-In . SVG Version: 6.00 Build 0)  -->
<!DOCTYPE svg PUBLIC "-//W3C//DTD SVG 1.1//EN" "http://www.w3.org/Graphics/SVG/1.1/DTD/svg11.dtd">
<svg version="1.1" id="Layer_1" xmlns="http://www.w3.org/2000/svg" xmlns:xlink="http://www.w3.org/1999/xlink" x="0px" y="0px"
	 width="540px" height="130px" viewBox="0 0 540 130" enable-background="new 0 0 540 130" xml:space="preserve">
<g>
	<polyline opacity="0.81" fill="#231F20" points="539,-0.324 27.43,117.815 1.24,-0.324 	"/>
	<g>
		<g>
			<path fill="#FFFFFF" d="M223.164,67.415c-0.599-2.601-3.27-4.21-5.954-3.591c-1.486,0.343-2.718,1.318-3.414,2.702
				c-1.478,3.285-4.003,5.49-7.107,6.207c-4.903,1.132-10.036-1.75-12.76-7.064l22.166-5.119l3.624-0.836l2.03-0.475
				c1.669-0.384,2.792-1.956,2.665-3.839l-0.047-0.266c-0.038-0.23-0.082-0.462-0.134-0.689
				c-2.947-12.764-14.612-21.005-26.007-18.374c-11.396,2.63-18.263,15.15-15.318,27.915c1.599,6.93,5.782,12.505,11.083,15.755
				l27.155-6.271c0.727-1.148,1.396-2.363,1.936-3.687C223.32,69.014,223.347,68.195,223.164,67.415z M198.772,46.255
				c0.58-0.251,1.126-0.436,1.675-0.561c0.551-0.127,1.142-0.206,1.802-0.233c4.105-0.156,8.188,2.389,10.629,6.538l-20.838,4.809
				C192.419,52.01,194.973,47.931,198.772,46.255z"/>
		</g>
		<path fill="#FFFFFF" d="M164.752,84.65c0.319-0.637,0.603-1.295,0.866-1.963c0.032-0.092,0.071-0.185,0.103-0.282
			c0.234-0.616,0.436-1.253,0.622-1.896c0.034-0.15,0.075-0.286,0.117-0.435c0.156-0.601,0.286-1.21,0.4-1.825
			c0.038-0.191,0.073-0.382,0.104-0.572c0.09-0.578,0.159-1.168,0.206-1.76c0.023-0.23,0.049-0.459,0.062-0.688
			c0.033-0.568,0.037-1.143,0.033-1.719c0.004-0.258,0.007-0.506-0.001-0.762c-0.021-0.591-0.076-1.187-0.143-1.787
			c-0.026-0.235-0.034-0.473-0.063-0.714c-0.111-0.829-0.259-1.665-0.452-2.503c-0.14-0.613-0.317-1.214-0.499-1.81
			c-3.591-11.732-14.644-19.074-25.511-16.564c-6.285,1.451-11.172,5.898-13.816,11.73c-3.577-4.241-9.333-6.385-15.112-5.05
			c-5.177,1.195-9.126,4.893-10.863,9.516c-3.587-3.394-8.753-4.989-13.935-3.791c-4.552,1.052-8.143,4.035-10.126,7.88
			c-3.884-2.488-9.073-3.447-14.342-2.23c-6.966,1.607-12.124,6.564-13.611,12.303c-0.19,0.785-0.235,1.608-0.04,2.447
			c0.667,2.894,3.557,4.699,6.449,4.031c5.08-1.174,2.552-8.084,9.312-9.647c4.582-1.056,6.995,1.614,7.328,3.054l0.484,2.101
			l-12.811,6.125c-1.864,0.895-3.521,2.048-4.869,3.456c-3.301,3.439-4.872,8.149-3.795,12.811c0.712,3.086,2.492,5.67,4.9,7.551
			l33.867-7.822c-0.003-0.012-0.003-0.018-0.006-0.029L83.837,78.8l0.021-0.005c-0.706-3.582,1.531-7.099,5.113-7.926
			c3.579-0.824,7.135,1.352,8.065,4.881l0.026-0.004l5.773,25.004c0.003,0.012,0.004,0.021,0.007,0.031l11.571-2.672
			c-0.003-0.012-0.003-0.02-0.006-0.03l-5.771-25.005l0.016-0.004c-0.708-3.582,1.535-7.099,5.114-7.925
			c3.582-0.827,7.14,1.351,8.074,4.88l0.016-0.002l1.117,4.838l4.665,20.197l6.862,29.727c0.737,3.195,3.925,5.186,7.122,4.448
			c3.195-0.738,5.186-3.925,4.45-7.12l-6.321-27.375c3.63,1.42,7.589,1.835,11.531,0.928c5.975-1.381,10.681-5.48,13.408-10.891
			C164.714,84.733,164.732,84.691,164.752,84.65z M75.386,95.018c1.016,4.412-2.124,8.898-7.015,10.027
			c-3.028,0.698-6.678,0.853-7.576-3.035c-0.507-2.191,0.946-4.611,3.584-5.975c2.637-1.359,10.036-5.266,10.036-5.266
			L75.386,95.018z M142.695,58.468c5.205-1.202,10.655,2.622,13.129,8.812l0,0c0.352,0.871,0.64,1.793,0.86,2.758
			c1.792,7.758-1.559,15.164-7.498,16.534c-5.936,1.372-12.198-3.815-13.99-11.573c-0.22-0.963-0.363-1.918-0.429-2.857l0,0
			C134.275,65.494,137.492,59.668,142.695,58.468z"/>
		<path fill="#FFFFFF" d="M181.013,66.595L167.158,6.921c-1.06-2.728-4.005-4.289-6.848-3.633c-2.85,0.659-4.808,3.354-4.62,6.408
			l7.189,31.136l6.565,28.434l3.53,15.297c0.004,0.008,0.008,0.018,0.011,0.028l11.565-2.675c0-0.006-0.005-0.016-0.006-0.023
			l-3.508-15.146C181.027,66.693,181.027,66.644,181.013,66.595z"/>
		<path fill="#FFFFFF" d="M227.83,72.9c0.613,2.668,3.275,4.335,5.943,3.718c2.669-0.614,4.334-3.28,3.719-5.949
			c-0.618-2.671-3.281-4.331-5.949-3.716C228.87,67.569,227.211,70.23,227.83,72.9z"/>
	</g>
</g>
</svg>
